<?xml version="1.0" encoding="utf-8"?>
<!-- Generator: Adobe Illustrator 25.0.1, SVG Export Plug-In . SVG Version: 6.00 Build 0)  -->
<svg version="1.1" id="レイヤー_1" xmlns="http://www.w3.org/2000/svg" xmlns:xlink="http://www.w3.org/1999/xlink" x="0px"
	 y="0px" viewBox="0 0 130 130" style="enable-background:new 0 0 130 130;" xml:space="preserve">
<style type="text/css">
	.st0{fill:#221F20;}
	.st1{opacity:0;}
	.st2{fill:#FFFFFF;}
	.st3{fill:none;stroke:#707070;}
</style>
<g id="グループ_46" transform="translate(-2702 -2586)">
	<g id="グループ_28" transform="translate(2720 2603.591)">
		<path id="パス_16" class="st0" d="M60.6,52.5L62,41.4H51v-7.1c0-3.2,0.9-5.4,5.5-5.4h5.9v-10c-2.9-0.3-5.7-0.4-8.6-0.4
			c-8.5,0-14.3,5.2-14.3,14.7v8.2h-9.6v11.1h9.6v24.9H51V52.6L60.6,52.5z"/>
		<path id="パス_17" class="st0" d="M47.4,94.8C21.2,94.8,0,73.6,0,47.4C0,21.2,21.2,0,47.4,0c11,0,21.6,3.8,30.1,10.8
			c11,9,17.4,22.4,17.3,36.6C94.8,73.6,73.6,94.8,47.4,94.8z M47.4,3C22.9,3.1,3.1,22.9,3,47.4c0,24.5,19.9,44.4,44.4,44.4
			c24.5,0,44.4-19.9,44.4-44.4C91.8,22.9,71.9,3.1,47.4,3L47.4,3z"/>
	</g>
	<g id="長方形_16" transform="translate(2702 2586)" class="st1">
		<rect class="st2" width="130" height="130"/>
		<rect x="0.5" y="0.5" class="st3" width="129" height="129"/>
	</g>
</g>
</svg>
