<?xml version="1.0" encoding="utf-8"?>
<!-- Generator: Adobe Illustrator 25.0.1, SVG Export Plug-In . SVG Version: 6.00 Build 0)  -->
<svg version="1.1" id="レイヤー_1" xmlns="http://www.w3.org/2000/svg" xmlns:xlink="http://www.w3.org/1999/xlink" x="0px"
	 y="0px" viewBox="0 0 130 130" style="enable-background:new 0 0 130 130;" xml:space="preserve">
<style type="text/css">
	.st0{fill:#221F20;}
	.st1{opacity:0;}
	.st2{fill:#FFFFFF;}
	.st3{fill:none;stroke:#707070;}
</style>
<g id="グループ_47" transform="translate(-2847 -2586)">
	<g id="グループ_27" transform="translate(2865 2603.591)">
		<g id="グループ_26" transform="translate(19.941 18.812)">
			<path id="パス_12" class="st0" d="M39.5,0H16C7.2,0,0,7.2,0,16c0,0,0,0,0,0v23.5c0,8.9,7.2,16,16,16h23.5c8.9,0,16-7.2,16-16
				c0,0,0,0,0,0V16C55.6,7.2,48.4,0,39.5,0L39.5,0 M50.5,40c0,5.9-4.8,10.7-10.7,10.7H15.8C9.9,50.6,5.1,45.8,5.1,40l0,0V15.9
				C5.1,10,9.9,5.3,15.8,5.3c0,0,0,0,0,0h24.1c5.9,0,10.7,4.8,10.7,10.7c0,0,0,0,0,0V40z"/>
			<path id="パス_13" class="st0" d="M27.8,13.5c-8,0-14.4,6.5-14.4,14.4c0,8,6.5,14.4,14.4,14.4c8,0,14.4-6.5,14.4-14.4
				c0,0,0,0,0,0C42.2,20,35.8,13.5,27.8,13.5C27.8,13.5,27.8,13.5,27.8,13.5 M27.8,37.3c-5.2,0-9.3-4.2-9.3-9.3s4.2-9.3,9.3-9.3
				c5.2,0,9.3,4.2,9.3,9.3S33,37.3,27.8,37.3"/>
			<path id="パス_14" class="st0" d="M42.7,9.6c-1.9,0-3.4,1.5-3.4,3.4s1.5,3.4,3.4,3.4c1.9,0,3.4-1.5,3.4-3.4S44.6,9.6,42.7,9.6"
				/>
		</g>
		<path id="パス_15" class="st0" d="M47.4,94.8C21.2,94.8,0,73.6,0,47.4C0,21.2,21.2,0,47.4,0c26.2,0,47.4,21.2,47.4,47.4
			C94.8,73.6,73.6,94.8,47.4,94.8z M47.4,3C22.9,3.1,3.1,22.9,3,47.4c0,24.5,19.9,44.4,44.4,44.4l0,0c24.5,0,44.4-19.9,44.4-44.4
			C91.8,22.9,71.9,3.1,47.4,3L47.4,3z"/>
	</g>
	<g id="長方形_17" transform="translate(2847 2586)" class="st1">
		<rect class="st2" width="130" height="130"/>
		<rect x="0.5" y="0.5" class="st3" width="129" height="129"/>
	</g>
</g>
</svg>
