<?xml version="1.0" encoding="utf-8"?>
<!-- Generator: Adobe Illustrator 25.0.1, SVG Export Plug-In . SVG Version: 6.00 Build 0)  -->
<svg version="1.1" id="レイヤー_1" xmlns="http://www.w3.org/2000/svg" xmlns:xlink="http://www.w3.org/1999/xlink" x="0px"
	 y="0px" viewBox="0 0 130 130" style="enable-background:new 0 0 130 130;" xml:space="preserve">
<style type="text/css">
	.st0{fill:#221F20;}
	.st1{opacity:3.000000e-03;}
	.st2{fill:#FFFFFF;}
	.st3{fill:none;stroke:#707070;}
</style>
<g id="グループ_48" transform="translate(-2992 -2586)">
	<g id="グループ_31" transform="translate(3010 2603.591)">
		<g id="グループ_30" transform="translate(23.358 26.814)">
			<g id="グループ_29">
				<path id="パス_18" class="st0" d="M51.6,5.1c-1.9,0.8-4,1.3-6.1,1.6c2.2-1.3,3.9-3.3,4.7-5.7c-2.1,1.2-4.3,2-6.7,2.4
					c-2-2.1-4.7-3.4-7.6-3.4c-5.8-0.1-10.6,4.5-10.6,10.3c0,0.8,0.1,1.6,0.2,2.4C17.1,12.2,9.3,8.1,4.1,1.5c-1,1.6-1.5,3.4-1.5,5.3
					c-0.1,3.5,1.7,6.8,4.5,8.8c-1.7-0.1-3.3-0.5-4.7-1.4c0,0,0,0.1,0,0.1c-0.1,5,3.4,9.3,8.3,10.4C9.7,24.9,8.8,25,7.9,25
					c-0.7,0-1.3-0.1-2-0.2c1.3,4.3,5.2,7.3,9.7,7.4c-3.8,2.9-8.4,4.4-13.1,4.3c-0.8,0-1.7-0.1-2.5-0.2c4.8,3.2,10.3,4.9,16,4.9
					c19.3,0.3,30.1-15.6,30.3-29.4c0-0.5,0-0.9,0-1.4C48.4,9.1,50.2,7.2,51.6,5.1L51.6,5.1z"/>
			</g>
		</g>
		<path id="パス_19" class="st0" d="M47.4,94.8C21.2,94.8,0,73.6,0,47.4C0,21.2,21.2,0,47.4,0c26.2,0,47.4,21.2,47.4,47.4
			C94.8,73.6,73.6,94.8,47.4,94.8z M47.4,3C22.9,3.1,3.1,22.9,3,47.4c0,24.5,19.9,44.4,44.4,44.4l0,0c24.5,0,44.4-19.9,44.4-44.4
			C91.8,22.9,71.9,3.1,47.4,3L47.4,3z"/>
	</g>
	<g id="長方形_18" transform="translate(2992 2586)" class="st1">
		<rect class="st2" width="130" height="130"/>
		<rect x="0.5" y="0.5" class="st3" width="129" height="129"/>
	</g>
</g>
</svg>
